<svg version="1.1" id="Layer_1" xmlns="http://www.w3.org/2000/svg" xmlns:xlink="http://www.w3.org/1999/xlink" x="0px" y="0px" viewBox="0 0 560 133.6" style="enable-background:new 0 0 560 133.6;" xml:space="preserve">
    <style type="text/css">
        .st0{fill:#9D2A3B;}
        .st1{fill:#3A3A39;}
    </style>
    <g>
        <g>
            <g>
                <g>
                    <g>
                        <g>
                            <path class="st0" d="M559.6,22.7v-4.8c0,0-1.1-12.4-20.3-12.4H494c0,0-17.5,1-17.3,19v5.9c0,0-1.7,14,19.2,17.9l38.7,2.8
                                c0,0,4.1,0.1,4.1,4.1c0,0-0.2,4.2-5.9,4.1h-56c0,0-1.8,16.7,19.5,17.3H539c0,0,21.2,1.4,21-19.3v-4.8c0,0,1.6-14-17.7-18.3
                                l-37.9-3.1c0,0-5.9-0.4-5.9-3.8c0,0-0.4-4.4,7.4-4.5L559.6,22.7L559.6,22.7z"/>
                        </g>
                    </g>
                    <g>
                        <g>
                            <path class="st0" d="M382.2,76.2V5.5h66.7c0,0,18.3-0.9,18.4,15.9v21c0,0,0,4.4-4.8,6.9c0,0,4.8,2.3,4.8,8.3v19h-21.4V63.1
                                c0,0,0.3-6.3-8.5-6.2l-24.3,0.3l-7.4-17.6h33.1c0,0,7.4,0.2,7.4-6.9v-3.5c0,0,0.1-6.5-9.2-6.6h-33.5v53.5h-21.3"/>
                        </g>
                    </g>
                    <g>
                        <g>
                            <path class="st0" d="M279,76.2l35.4-70.7H338l35.4,70.7H352l-5.9-11.7h-22.5L317,47.2h19.5l-10.3-19l-26.2,48H279z"/>
                        </g>
                    </g>
                    <g>
                        <g>
                            <path class="st0" d="M248.4,76.6V30.4L220,76.6c0,0-3.3,0-4.4,0h-0.2h-0.2h-4.4l-28.4-46.2v46.2c0,0-5.9,0-11.5,0
                                c-5.2,0-10.2,0-10.2,0V5.5H181c0,0,8.3-0.7,13.3,7.2l21.2,34.2l21.2-34.2c5-7.9,13.3-7.2,13.3-7.2h20.3v71.1H248.4z"/>
                        </g>
                    </g>
                    <g>
                        <g>
                            <path class="st0" d="M490.2,113.2c0,13.7,5.6,15,14.5,15s14.5-1.7,14.5-15c0-14.1-5.9-15.5-14.5-15.5
                                C496.4,97.7,490.2,99.1,490.2,113.2z M497.1,113.2c0-9.6,2.3-10.2,7.6-10.2c5.5,0,7.6,0.8,7.6,10.2c0,8.1-1.8,9.7-7.6,9.7
                                C498.5,122.9,497.1,121.4,497.1,113.2z"/>
                        </g>
                    </g>
                    <g>
                        <g>
                            <path class="st1" d="M160.7,103.7h9.5V127h5.4v-23.3h9.8v-4.1h-24.8v4.1H160.7z"/>
                        </g>
                    </g>
                    <g>
                        <g>
                            <path class="st1" d="M199,127.1h5.4v-11.2l7.1,0.5l6.2,10.7h6.1l-6.8-11c1.7-0.4,5.6-1.1,5.6-8c0-6.4-3.8-8.4-8.8-8.4H199
                                V127.1z M204.4,112.3v-8.7h9c2.1,0,3.8,0.7,3.8,4.4c0,3.9-1.5,4.3-3.8,4.3H204.4z"/>
                        </g>
                    </g>
                    <g>
                        <g>
                            <path class="st1" d="M236.3,127.1h6l2.7-6.6h12.1l2.6,6.6h5.9l-11.5-27.4h-6L236.3,127.1z M246.6,116.5l4.7-10.9l4.5,10.9
                                H246.6z"/>
                        </g>
                    </g>
                    <g>
                        <g>
                            <path class="st1" d="M279.6,127.1h5.5v-19.2l15.4,19.2h5.4V99.7h-5.4v19.4l-15.3-19.4h-5.5v27.4H279.6z"/>
                        </g>
                    </g>
                    <g>
                        <g>
                            <path class="st1" d="M320.6,108.8c0,2.7,0.7,7,8.7,7h5.7c2.7,0,3.4,1.2,3.4,3v1.9c0,2.5-2.9,2.7-4.9,2.7
                                c-4.4,0-10-0.3-11.9-0.4v3.4c3,0.6,8.1,1.1,12.7,1.1s9.5-1,9.5-6.9v-2.1c0-3-1.3-7-7.8-7h-5.9c-2.7,0-4.1-0.4-4.1-3v-1.8
                                c0-3,2-3.2,5-3.1c1.1,0,8.6,0.2,11.6,0.4v-3.4c-2.4-0.5-8.7-1.1-12.7-1c-5.3,0-9.3,1.5-9.3,6.9L320.6,108.8L320.6,108.8z"/>
                        </g>
                    </g>
                    <g>
                        <g>
                            <path class="st1" d="M358.6,121.9c0,4.2,3.4,5.1,6.9,5.1h14.2v-4.1H367c-1.4,0-2.9,0-2.9-1.9V99.6h-5.4v22.3H358.6z"/>
                        </g>
                    </g>
                    <g>
                        <g>
                            <path class="st1" d="M392.7,127.1h6l2.7-6.6h12.1l2.6,6.6h5.9l-11.5-27.4h-6L392.7,127.1z M403,116.5l4.7-10.9l4.5,10.9H403z"
                                />
                        </g>
                    </g>
                    <g>
                        <g>
                            <path class="st1" d="M430,103.7h9.5V127h5.4v-23.3h9.8v-4.1H430V103.7z"/>
                        </g>
                    </g>
                    <g>
                        <g>
                            <path class="st1" d="M468.9,127.1h5.4V99.7h-5.4V127.1z"/>
                        </g>
                    </g>
                    <g>
                        <g>
                            <path class="st1" d="M532.9,127.1h5.5v-19.2l15.4,19.2h5.4V99.7h-5.4v19.4l-15.3-19.4H533v27.4H532.9z"/>
                        </g>
                    </g>
                    <g>
                        <g>
                            <path class="st1" d="M160.7,103.7h9.5V127h5.4v-23.3h9.8v-4.1h-24.8v4.1H160.7z"/>
                        </g>
                    </g>
                    <g>
                        <g>
                            <path class="st1" d="M199,127.1h5.4v-11.2l7.1,0.5l6.2,10.7h6.1l-6.8-11c1.7-0.4,5.6-1.1,5.6-8c0-6.4-3.8-8.4-8.8-8.4H199
                                V127.1z M204.4,112.3v-8.7h9c2.1,0,3.8,0.7,3.8,4.4c0,3.9-1.5,4.3-3.8,4.3H204.4z"/>
                        </g>
                    </g>
                    <g>
                        <g>
                            <path class="st1" d="M236.3,127.1h6l2.7-6.6h12.1l2.6,6.6h5.9l-11.5-27.4h-6L236.3,127.1z M246.6,116.5l4.7-10.9l4.5,10.9
                                H246.6z"/>
                        </g>
                    </g>
                    <g>
                        <g>
                            <path class="st1" d="M279.6,127.1h5.5v-19.2l15.4,19.2h5.4V99.7h-5.4v19.4l-15.3-19.4h-5.5v27.4H279.6z"/>
                        </g>
                    </g>
                    <g>
                        <g>
                            <path class="st1" d="M320.6,108.8c0,2.7,0.7,7,8.7,7h5.7c2.7,0,3.4,1.2,3.4,3v1.9c0,2.5-2.9,2.7-4.9,2.7
                                c-4.4,0-10-0.3-11.9-0.4v3.4c3,0.6,8.1,1.1,12.7,1.1s9.5-1,9.5-6.9v-2.1c0-3-1.3-7-7.8-7h-5.9c-2.7,0-4.1-0.4-4.1-3v-1.8
                                c0-3,2-3.2,5-3.1c1.1,0,8.6,0.2,11.6,0.4v-3.4c-2.4-0.5-8.7-1.1-12.7-1c-5.3,0-9.3,1.5-9.3,6.9L320.6,108.8L320.6,108.8z"/>
                        </g>
                    </g>
                    <g>
                        <g>
                            <path class="st1" d="M358.6,121.9c0,4.2,3.4,5.1,6.9,5.1h14.2v-4.1H367c-1.4,0-2.9,0-2.9-1.9V99.6h-5.4v22.3H358.6z"/>
                        </g>
                    </g>
                    <g>
                        <g>
                            <path class="st1" d="M392.7,127.1h6l2.7-6.6h12.1l2.6,6.6h5.9l-11.5-27.4h-6L392.7,127.1z M403,116.5l4.7-10.9l4.5,10.9H403z"
                                />
                        </g>
                    </g>
                    <g>
                        <g>
                            <path class="st1" d="M430,103.7h9.5V127h5.4v-23.3h9.8v-4.1H430V103.7z"/>
                        </g>
                    </g>
                    <g>
                        <g>
                            <path class="st1" d="M468.9,127.1h5.4V99.7h-5.4V127.1z"/>
                        </g>
                    </g>
                    <g>
                        <g>
                            <path class="st1" d="M532.9,127.1h5.5v-19.2l15.4,19.2h5.4V99.7h-5.4v19.4l-15.3-19.4H533v27.4H532.9z"/>
                        </g>
                    </g>
                </g>
            </g>
            <g>
                <g>
                    <g>
                        <path class="st0" d="M133.2,50.5c0,0-4.6,25.7-33.1,47.5c-37.8,28.5-62.3,30.8-62.3,30.8s23.3,10.7,51.9,0
                            c36-14.7,41.5-41.1,41.5-41.1s3.3-6.9,3.2-21.2C134.6,58.6,133.2,50.5,133.2,50.5z"/>
                    </g>
                </g>
                <g>
                    <path class="st1" d="M85.8,2.1C48.6-6.5,25.3,13.9,25.3,13.9S4.5,30.3,1,53.6c-4.5,27.3,7.5,44.7,7.5,44.7S13.2,88,24.1,75.7
                        c-0.8-1.1-1.3-2.4-1.3-3.9c0-3.5,2.9-6.4,6.4-6.4c1.5,0,2.8,0.5,3.9,1.3C43,57.9,56,49.2,67.9,43c40.5-21,60.5-6.8,60.5-6.8
                        S115.5,8.6,85.8,2.1z"/>
                </g>
                <g>
                    <path class="st1" d="M99.3,52.6c-5.6-8.9-23.3-10.6-52.2,6c-4.7,3-9.1,6.1-13.1,9.4c0.8,1.1,1.3,2.4,1.3,3.8
                        c0,3.5-2.9,6.4-6.4,6.4c-1.6,0-3-0.6-4.1-1.5C14,88.5,9.1,100.4,13.6,107.4c5.6,8.9,18.9,13.7,54.2-5.2
                        C92.9,85.9,106.3,62.1,99.3,52.6z"/>
                </g>
            </g>
        </g>
    </g>
</svg>